<svg width="108" height="42" viewBox="0 0 108 42" fill="none" xmlns="http://www.w3.org/2000/svg">
<path fill-rule="evenodd" clip-rule="evenodd" d="M23.3981 15.6345C22.8849 15.6746 21.7567 23.8337 21.9884 24.3448C22.4899 25.4512 22.5108 25.0939 22.9917 24.3776C23.2682 23.9658 23.335 22.9429 23.3748 22.2392C23.4031 21.7397 23.6453 20.3208 23.9683 20.2888C24.6113 20.225 28.9079 20.5828 28.9571 18.1789C29.006 15.7821 23.8348 14.6975 23.332 15.151C23.1293 15.3339 23.4039 15.3698 23.5568 15.3963C23.7097 15.4229 28.183 15.4854 28.0822 18.3794C28.0243 20.0416 23.7991 19.9557 23.8074 19.7294C23.8157 19.5031 24.2078 15.5712 23.3981 15.6345Z" fill="black"/>
<path fill-rule="evenodd" clip-rule="evenodd" d="M38.3504 15.4489C38.1225 15.5495 37.6151 18.8549 37.267 21.6904C36.9714 24.0986 36.7612 26.1209 37.2448 26.0481C38.2977 25.8895 38.3416 23.6875 38.3504 22.6985C38.3592 21.7095 38.482 20.2633 38.7101 20.142C38.9383 20.0207 40.5396 23.6946 41.4742 24.5925C43.3481 26.393 43.9574 25.5163 43.9574 25.5163C43.9574 25.5163 42.7026 25.3949 41.2109 23.0064C39.7192 20.6179 39.2191 19.4609 39.2191 19.4609C39.2191 19.4609 43.0448 19.6942 43.1326 17.6322C43.2252 15.457 40.6756 14.4226 38.3504 15.4489ZM38.8418 15.8501C38.8418 15.8501 38.5171 18.8824 38.7277 19.0317C38.9383 19.181 42.6149 19.125 42.5974 17.3336C42.5798 15.5422 40.3773 14.9077 38.8418 15.8501Z" fill="black"/>
<path fill-rule="evenodd" clip-rule="evenodd" d="M80.6505 31.7788C80.6087 32.2274 72.528 31.6914 72.5804 32.9225C72.6375 34.2643 74.9908 33.7341 74.9955 34.6134C74.9988 35.1716 71.66 34.5369 71.6879 36.2138C71.7137 37.7747 82.0285 35.8792 81.555 36.2567C81.0597 36.6518 71.5075 37.9268 71.4684 36.2959C71.4273 34.5937 73.8689 34.4854 73.8689 34.4854C73.8689 34.4854 72.2588 34.3505 72.2787 32.8326C72.2966 31.4309 80.7089 31.1457 80.6505 31.7788Z" fill="black"/>
<path fill-rule="evenodd" clip-rule="evenodd" d="M85.2246 31.0982C84.6199 31.1733 85.0032 36.142 85.0947 36.3246C85.1855 36.5073 92.5812 37.0043 92.6084 36.4864C92.6356 35.9686 86.3155 36.3304 86.1 35.9606C85.8844 35.5908 85.9607 31.0069 85.2246 31.0982Z" fill="black"/>
<path fill-rule="evenodd" clip-rule="evenodd" d="M47.3673 36.5057C46.9504 36.735 46.5324 31.2838 49.666 31.217C52.2702 31.1616 54.1222 33.6343 54.3178 35.3973C54.5128 37.1602 54.6865 37.1862 54.2416 37.2403C53.3634 37.3471 53.602 36.1318 53.4177 35.05C53.2333 33.9682 52.3968 31.3593 49.5576 31.5375C46.7926 31.7112 47.9745 36.1718 47.3673 36.5057Z" fill="black"/>
<path fill-rule="evenodd" clip-rule="evenodd" d="M46.3373 34.3545C46.3616 33.7135 48.4749 33.789 50.7926 33.7683C53.1615 33.7474 55.9545 33.2145 55.9764 34.0473C55.9883 34.4792 53.5815 34.1388 50.5877 34.2209C48.1798 34.2869 46.3258 34.6592 46.3373 34.3545Z" fill="black"/>
<path fill-rule="evenodd" clip-rule="evenodd" d="M60.906 31.201C60.3444 31.3154 60.8092 33.7459 60.8331 34.4367C60.8576 35.1275 61.0028 37.1392 61.4027 37.0907C61.8025 37.0423 61.7667 34.8851 61.6335 33.8307C61.5002 32.7765 61.5605 31.0677 60.906 31.201Z" fill="black"/>
<path fill-rule="evenodd" clip-rule="evenodd" d="M59.1295 31.4362C58.9332 31.1307 61.2687 30.9472 63.0206 31.1719C65.0577 31.4332 67.0112 31.8023 67.0398 32.7981C67.0742 33.9984 60.4882 34.6451 60.4822 34.2115C60.4789 33.9656 66.7314 34.0348 66.6717 32.8134C66.62 31.7445 64.264 31.6529 63.0823 31.457C60.0884 30.9606 59.3225 31.7371 59.1295 31.4362Z" fill="black"/>
<path fill-rule="evenodd" clip-rule="evenodd" d="M32.8804 31.8099C32.5199 31.9328 32.3923 34.0927 32.4399 34.8503C32.4859 35.5836 32.6868 37.1498 32.9966 37.16C33.3065 37.1704 33.4803 35.0463 33.421 34.3236C33.3622 33.6068 33.3348 31.6549 32.8804 31.8099Z" fill="black"/>
<path fill-rule="evenodd" clip-rule="evenodd" d="M39.7865 31.466C39.398 31.5351 39.6885 33.6869 39.7517 34.478C39.8153 35.2728 39.8395 37.3751 40.2422 37.3234C40.645 37.2718 40.4207 35.1893 40.3714 34.3024C40.3288 33.5371 40.2513 31.3833 39.7865 31.466Z" fill="black"/>
<path fill-rule="evenodd" clip-rule="evenodd" d="M33.9291 33.8514C33.9425 34.1919 36.5915 34.075 37.8721 34.0543C39.1527 34.0337 41.3731 34.3848 41.3525 33.9511C41.3318 33.5173 39.073 33.5804 37.7511 33.6734C36.4291 33.7663 33.9186 33.5859 33.9291 33.8514Z" fill="black"/>
<path fill-rule="evenodd" clip-rule="evenodd" d="M26.5535 31.6587C26.5899 32.1916 21.2127 30.888 21.3058 34.0915C21.3934 37.1031 26.6445 35.8273 26.7039 36.4217C26.7409 36.7906 20.4635 37.2333 20.525 33.9624C20.577 31.1959 26.5323 31.347 26.5535 31.6587Z" fill="black"/>
<path d="M95.5415 15.0541C95.0742 15.0764 94.7025 17.8246 94.0925 20.5067C93.5486 22.8972 92.6906 27.565 93.5297 27.5761C94.3877 27.5874 94.7136 26.2685 94.9859 24.3589C95.4145 21.3552 96.141 17.9018 96.141 16.8974C96.141 15.9373 96.1515 15.319 97.2523 15.8709C98.3531 16.4227 99.9075 18.8292 99.8126 21.754C99.6987 25.292 98.3714 25.7977 95.6069 26.9859C93.7784 27.7718 90.7894 27.435 90.9648 27.9682C91.063 28.2663 94.5768 27.7139 96.9905 26.8866C99.181 26.136 100.979 24.4141 100.957 21.4008C100.935 18.3875 98.4565 14.9146 95.5415 15.0541Z" fill="black"/>
<path fill-rule="evenodd" clip-rule="evenodd" d="M84.9618 16.0716C84.524 16.0768 83.1402 20.4235 82.8714 21.7797C82.6025 23.136 81.7805 25.7668 81.9917 26.2162C82.2036 26.6655 81.8375 27.0659 82.1225 27.0495C82.4074 27.0332 83.041 26.3882 83.3588 25.4894C83.6766 24.5908 84.0145 21.8368 84.5012 21.3708C84.7365 21.1456 85.4794 22.5514 86.5843 23.3729C87.4672 24.0294 90.68 25.5297 90.9401 25.4562C91.2009 25.3827 88.4447 23.9887 87.1025 22.8338C85.7274 21.6505 85.0858 20.7503 85.1998 20.5053C85.3138 20.2601 88.9094 20.6098 89.1152 18.5107C89.3063 16.5555 88.5963 15.5157 87.5269 15.1763C86.4569 14.8368 85.3902 15.2623 85.3171 15.51C85.244 15.7577 85.2997 15.8953 85.4465 15.8918C85.594 15.8883 86.5179 15.0708 87.2641 15.4143C88.0103 15.7578 88.2248 17.137 88.1243 18.1136C87.9292 20.002 84.6158 20.37 84.6098 20.0628C84.6038 19.7556 85.7817 16.0619 84.9618 16.0716Z" fill="black"/>
<path fill-rule="evenodd" clip-rule="evenodd" d="M79.4394 15.0655C77.0747 14.789 75.3841 18.2686 75.1198 21.2002C74.8555 24.1318 74.5912 27.077 77.1278 27.0498C79.6637 27.0227 80.8297 24.654 80.9228 21.152C81.0153 17.6504 81.0369 15.2523 79.4394 15.0655ZM79.3863 15.6356C77.6052 15.4861 77.0222 18.4722 76.7048 20.3858C76.3881 22.2995 76.0025 26.6914 77.2957 26.6156C79.1607 26.5062 80.6382 24.182 80.7307 21.074C80.8231 17.9659 80.6808 15.7441 79.3863 15.6356Z" fill="black"/>
<path fill-rule="evenodd" clip-rule="evenodd" d="M57.9574 8.69445C57.9574 8.69445 59.9873 6.40015 61.9083 10.2964C63.0492 12.6106 63.3517 14.3285 63.427 17.094C63.5002 19.7624 63.2607 23.9251 63.2607 23.9251C63.2607 23.9251 65.361 20.7501 66.6367 18.7483C67.4655 17.4471 68.1642 16.8069 68.5071 15.4255C68.6091 15.0128 69.0936 15.3902 69.4297 15.3982C69.7664 15.4062 69.4913 18.4304 69.7773 19.8331C70.0634 21.2359 71.0995 26.8514 71.0995 26.8514C71.0995 26.8514 71.064 26.3176 71.8654 23.2973C72.6757 20.2442 74.4065 15.2378 77.0906 11.8509C79.7741 8.46408 84.4415 5.05 84.4415 5.05C84.4415 5.05 85.477 5.15893 84.614 5.5766C83.7517 5.99428 79.7877 8.86373 77.3151 12.0963C74.8417 15.3287 72.0878 23.9027 71.8332 26.3396C71.5779 28.7765 71.3637 29.9862 71.3959 30.4892C71.4281 30.9797 69.7075 31.3602 69.6699 30.6876C69.6507 30.3469 69.6582 26.9969 69.0396 23.652C68.4209 20.307 68.4982 16.7881 68.4982 16.7881C68.4982 16.7881 64.4535 22.2281 63.6733 24.9059C62.8925 27.5837 63.2196 26.8243 62.2601 27.0441C61.2999 27.2639 61.469 26.7344 61.3848 26.0949C61.2999 25.4555 61.7934 22.9059 61.7961 19.3966C61.7988 16.5542 62.152 14.2501 61.033 10.9595C59.7813 7.27784 57.9574 8.69445 57.9574 8.69445Z" fill="black"/>
<path fill-rule="evenodd" clip-rule="evenodd" d="M32.624 15.0508C32.8244 15.0585 33.1798 14.8266 32.7652 18.4138C32.3504 22.0009 32.3504 24.4203 31.7593 24.7286C31.1681 25.0368 31.4505 25.3264 31.0711 24.5698C30.6917 23.8131 31.3799 21.0854 31.424 20.4875C31.4682 19.8897 31.6547 18.7042 31.7783 17.7501C31.8875 16.9077 32.0975 15.0306 32.624 15.0508Z" fill="black" stroke="black" stroke-width="0.00044964" stroke-miterlimit="1.5" stroke-linecap="round" stroke-linejoin="round"/>
<path fill-rule="evenodd" clip-rule="evenodd" d="M20.4597 6.41924C20.7305 6.06695 18.001 4.98844 15.513 5.00009C13.2782 5.01057 10.8383 7.21951 10.7331 10.2507C10.6295 13.242 13.555 15.5952 15.2378 17.6998C17.2114 20.1679 18.4541 23.5287 17.0294 26.4498C16.0311 28.4965 13.0443 28.716 10.8711 28.724C6.61125 28.7394 0.985258 27.4134 0 23.1251C0.0683793 25.1597 1.58499 26.9777 3.53065 27.9602C5.034 28.7194 6.04157 29.0019 7.75304 29.2066C11.7604 29.6859 17.0142 29.7029 19.5363 26.3247C21.8925 23.1689 19.4745 19.3056 17.3733 16.6438C16.5301 15.5756 15.5726 14.5809 14.7283 13.5134C13.9804 12.5682 13.2361 11.4853 13.1995 10.2873C13.125 7.8427 13.5816 5.69351 15.4865 5.5749C17.4794 5.45091 20.3624 6.54568 20.4597 6.41924Z" fill="black"/>
<path fill-rule="evenodd" clip-rule="evenodd" d="M48.8056 15.0504C48.3836 15.1105 48.0226 16.0816 47.6408 19.1655C47.2589 22.2494 46.8572 24.5393 46.9799 25.5116C47.1027 26.4839 47.218 27.05 47.218 27.05C47.218 27.05 47.5044 26.8829 47.8862 26.093C48.2681 25.303 48.2408 25.1207 48.2681 23.5256C48.2954 21.9304 48.6499 19.8796 48.8136 18.3452C48.9772 16.8108 49.0346 15.0178 48.8056 15.0504Z" fill="black"/>
<path fill-rule="evenodd" clip-rule="evenodd" d="M51.0849 15.1352C51.7477 14.982 54.2476 15.0703 55.1989 15.1307C56.1502 15.1912 58.6286 14.9373 58.7768 15.2033C58.9243 15.4693 59.0887 16.0376 58.7924 15.9892C58.4967 15.9409 56.0657 15.5418 55.1463 15.5902C54.2268 15.6386 51.5053 16.0618 51.2201 16.0498C50.9345 16.0376 50.87 15.1847 51.0849 15.1352Z" fill="black"/>
<path fill-rule="evenodd" clip-rule="evenodd" d="M55.671 15.0636C55.3241 15.2206 55.0748 15.9532 54.9664 17.0888C54.8574 18.2243 54.2988 21.0692 54.2108 21.739C54.1222 22.4089 53.744 23.8066 54.1228 24.4346C54.5016 25.0625 54.2574 24.7486 54.3409 24.9788C54.4238 25.209 54.7139 24.8323 54.9007 24.5392C55.0876 24.2462 55.2119 22.7549 55.3203 21.7763C55.4293 20.7977 55.9637 17.9811 55.956 17.0626C55.949 16.1441 56.0185 14.9066 55.671 15.0636Z" fill="black"/>
</svg>
